<svg width="610" height="610" viewBox="0 0 610 610" fill="none" xmlns="http://www.w3.org/2000/svg">
<path d="M300.994 33.2532C262.579 33.7757 224.164 55.8421 196.422 112.089C196.882 101.391 153.416 74.2088 139.695 128.025C48.6238 159.86 77.3196 257.801 106.467 295.968C83.7263 415.381 164.189 447.75 216.824 420.258C237.922 450.848 260.837 493.306 262.703 533.003C261.497 583.187 247.937 585.053 261.497 585.053H346.911C340.915 483.068 349.163 466.97 353.044 423.33C365.285 415.667 378.397 407.295 393.873 400.279C478.08 413.677 503.483 389.68 492.262 343.713C531.15 351.538 567.476 297.809 542.458 219.971C534.733 195.973 515.102 162.957 486.39 149.994C494.738 123.049 471.164 47.9762 405.616 83.8251C377.837 53.7745 339.422 32.7295 300.994 33.2532Z" fill="#78BE27"/>
<circle cx="305.805" cy="305.734" r="62.7864" stroke="#340C0E" stroke-width="16.0991"/>
<circle cx="489.334" cy="468.334" r="45.6628" stroke="#340C0E" stroke-width="11.7084"/>
<circle cx="96.517" cy="410.377" r="45.6628" stroke="#340C0E" stroke-width="11.7084"/>
<circle cx="325.124" cy="75.517" r="45.6628" stroke="#340C0E" stroke-width="11.7084"/>
<circle cx="120.666" cy="186.601" r="21.4044" stroke="#340C0E" stroke-width="5.48832"/>
<circle cx="540.851" cy="199.48" r="21.4044" stroke="#340C0E" stroke-width="5.48832"/>
<circle cx="268.777" cy="508.582" r="21.4044" stroke="#340C0E" stroke-width="5.48832"/>
<line x1="351.372" y1="344.77" x2="459.236" y2="439.755" stroke="#340C0E" stroke-width="16.0991"/>
<line x1="320.283" y1="119.406" x2="313.956" y2="240.157" stroke="#340C0E" stroke-width="16.0991"/>
<line x1="248.555" y1="330.47" x2="139.082" y2="391.646" stroke="#340C0E" stroke-width="16.0991"/>
<line x1="296.069" y1="370.988" x2="275.14" y2="486.901" stroke="#340C0E" stroke-width="9.65944"/>
<line x1="137.82" y1="200.282" x2="247.294" y2="272.728" stroke="#340C0E" stroke-width="9.65944"/>
<line x1="364.893" y1="285.28" x2="522.664" y2="209.614" stroke="#340C0E" stroke-width="9.65944"/>
</svg>
